<svg xmlns="http://www.w3.org/2000/svg" viewBox="0 0 800 600" preserveAspectRatio="xMidYMid slice">
  <defs>
    <linearGradient id="bg" x1="0" y1="0" x2="0" y2="1">
      <stop offset="0%" stop-color="#D7CBBD"/>
      <stop offset="60%" stop-color="#826F5A"/>
      <stop offset="100%" stop-color="#3E342A"/>
    </linearGradient>
    <radialGradient id="fig" cx="50%" cy="50%" r="50%">
      <stop offset="0%" stop-color="#3E342A" stop-opacity=".9"/>
      <stop offset="100%" stop-color="#3E342A" stop-opacity="0"/>
    </radialGradient>
    <filter id="grain">
      <feTurbulence type="fractalNoise" baseFrequency="0.9" numOctaves="2" seed="59"/>
      <feColorMatrix values="0 0 0 0 0  0 0 0 0 0  0 0 0 0 0  0 0 0 .16 0"/>
      <feComposite in2="SourceGraphic" operator="in"/>
    </filter>
  </defs>
  <rect width="800" height="600" fill="url(#bg)"/>
  
  <rect width="800" height="600" fill="url(#bg)" filter="url(#grain)" opacity=".9"/>
  <circle cx="18.2" cy="508.2" r="0.73" fill="black" opacity="0.11"/>
<circle cx="8.5" cy="497.0" r="0.53" fill="black" opacity="0.12"/>
<circle cx="428.8" cy="456.8" r="0.74" fill="black" opacity="0.07"/>
<circle cx="535.8" cy="581.4" r="0.84" fill="black" opacity="0.13"/>
<circle cx="80.9" cy="384.4" r="0.81" fill="black" opacity="0.07"/>
<circle cx="36.0" cy="449.0" r="0.64" fill="black" opacity="0.14"/>
<circle cx="202.5" cy="53.3" r="0.65" fill="black" opacity="0.12"/>
<circle cx="518.6" cy="63.5" r="0.50" fill="black" opacity="0.05"/>
<circle cx="323.7" cy="467.0" r="0.57" fill="black" opacity="0.09"/>
<circle cx="181.0" cy="310.5" r="0.89" fill="black" opacity="0.08"/>
<circle cx="245.0" cy="414.5" r="0.83" fill="black" opacity="0.05"/>
<circle cx="511.1" cy="360.9" r="0.66" fill="black" opacity="0.09"/>
<circle cx="544.3" cy="509.5" r="0.45" fill="black" opacity="0.05"/>
<circle cx="116.5" cy="331.3" r="0.45" fill="black" opacity="0.09"/>
<circle cx="421.7" cy="262.2" r="0.68" fill="black" opacity="0.09"/>
<circle cx="424.3" cy="468.1" r="0.52" fill="black" opacity="0.04"/>
<circle cx="726.6" cy="215.6" r="0.54" fill="black" opacity="0.05"/>
<circle cx="462.4" cy="486.0" r="0.35" fill="black" opacity="0.10"/>
<circle cx="35.3" cy="251.8" r="0.39" fill="black" opacity="0.11"/>
<circle cx="742.5" cy="319.3" r="0.52" fill="black" opacity="0.11"/>
<circle cx="648.3" cy="39.6" r="0.59" fill="black" opacity="0.11"/>
<circle cx="731.8" cy="97.6" r="0.83" fill="black" opacity="0.06"/>
<circle cx="486.1" cy="502.3" r="0.79" fill="black" opacity="0.07"/>
<circle cx="568.4" cy="219.5" r="0.44" fill="black" opacity="0.14"/>
<circle cx="36.9" cy="586.8" r="0.32" fill="black" opacity="0.12"/>
<circle cx="204.7" cy="199.4" r="0.30" fill="black" opacity="0.10"/>
<circle cx="603.1" cy="495.5" r="0.43" fill="black" opacity="0.06"/>
<circle cx="24.3" cy="80.8" r="0.67" fill="black" opacity="0.06"/>
<circle cx="118.7" cy="61.8" r="0.34" fill="black" opacity="0.06"/>
<circle cx="541.0" cy="362.7" r="0.63" fill="black" opacity="0.07"/>
<circle cx="599.8" cy="144.4" r="0.72" fill="black" opacity="0.10"/>
<circle cx="582.9" cy="347.7" r="0.39" fill="black" opacity="0.11"/>
<circle cx="395.7" cy="6.0" r="0.59" fill="black" opacity="0.06"/>
<circle cx="162.8" cy="262.5" r="0.84" fill="black" opacity="0.06"/>
<circle cx="332.4" cy="467.6" r="0.58" fill="black" opacity="0.14"/>
<circle cx="679.2" cy="449.3" r="0.61" fill="black" opacity="0.10"/>
<circle cx="520.4" cy="525.6" r="0.31" fill="black" opacity="0.13"/>
<circle cx="209.6" cy="7.6" r="0.59" fill="black" opacity="0.06"/>
<circle cx="276.5" cy="64.5" r="0.69" fill="black" opacity="0.08"/>
<circle cx="131.0" cy="529.3" r="0.32" fill="black" opacity="0.13"/>
<circle cx="739.7" cy="141.4" r="0.76" fill="black" opacity="0.09"/>
<circle cx="128.1" cy="159.2" r="0.57" fill="black" opacity="0.07"/>
<circle cx="197.7" cy="361.0" r="0.56" fill="black" opacity="0.13"/>
<circle cx="682.9" cy="71.6" r="0.77" fill="black" opacity="0.06"/>
<circle cx="520.3" cy="206.9" r="0.84" fill="black" opacity="0.08"/>
<circle cx="678.1" cy="539.2" r="0.39" fill="black" opacity="0.13"/>
<circle cx="42.7" cy="102.8" r="0.45" fill="black" opacity="0.10"/>
<circle cx="67.8" cy="337.0" r="0.86" fill="black" opacity="0.04"/>
<circle cx="683.7" cy="304.8" r="0.61" fill="black" opacity="0.09"/>
<circle cx="357.2" cy="284.1" r="0.86" fill="black" opacity="0.13"/>
<circle cx="637.8" cy="431.6" r="0.50" fill="black" opacity="0.04"/>
<circle cx="686.6" cy="289.6" r="0.61" fill="black" opacity="0.11"/>
<circle cx="268.0" cy="286.1" r="0.67" fill="black" opacity="0.11"/>
<circle cx="21.6" cy="9.0" r="0.88" fill="black" opacity="0.13"/>
<circle cx="617.9" cy="510.4" r="0.68" fill="black" opacity="0.04"/>
<circle cx="336.8" cy="255.0" r="0.64" fill="black" opacity="0.11"/>
<circle cx="430.6" cy="538.6" r="0.40" fill="black" opacity="0.06"/>
<circle cx="338.6" cy="390.7" r="0.90" fill="black" opacity="0.09"/>
<circle cx="281.9" cy="92.6" r="0.48" fill="black" opacity="0.12"/>
<circle cx="318.5" cy="279.6" r="0.60" fill="black" opacity="0.14"/>
<circle cx="722.8" cy="55.9" r="0.88" fill="black" opacity="0.13"/>
<circle cx="315.9" cy="563.0" r="0.89" fill="black" opacity="0.04"/>
<circle cx="418.5" cy="518.9" r="0.40" fill="black" opacity="0.06"/>
<circle cx="297.4" cy="379.5" r="0.32" fill="black" opacity="0.08"/>
<circle cx="178.3" cy="153.8" r="0.64" fill="black" opacity="0.08"/>
<circle cx="719.4" cy="475.6" r="0.71" fill="black" opacity="0.09"/>
<circle cx="723.5" cy="305.4" r="0.81" fill="black" opacity="0.13"/>
<circle cx="738.5" cy="121.2" r="0.78" fill="black" opacity="0.04"/>
<circle cx="773.3" cy="46.8" r="0.50" fill="black" opacity="0.07"/>
<circle cx="509.4" cy="127.7" r="0.37" fill="black" opacity="0.11"/>
<circle cx="162.0" cy="30.7" r="0.65" fill="black" opacity="0.12"/>
<circle cx="152.1" cy="171.7" r="0.78" fill="black" opacity="0.06"/>
<circle cx="210.4" cy="157.2" r="0.47" fill="black" opacity="0.09"/>
<circle cx="245.1" cy="531.3" r="0.63" fill="black" opacity="0.10"/>
<circle cx="139.1" cy="288.1" r="0.50" fill="black" opacity="0.11"/>
<circle cx="468.2" cy="529.3" r="0.38" fill="black" opacity="0.13"/>
<circle cx="205.3" cy="478.2" r="0.58" fill="black" opacity="0.09"/>
<circle cx="620.1" cy="576.4" r="0.79" fill="black" opacity="0.10"/>
<circle cx="7.0" cy="239.7" r="0.63" fill="black" opacity="0.08"/>
<circle cx="734.7" cy="224.0" r="0.80" fill="black" opacity="0.06"/>
<circle cx="376.5" cy="86.7" r="0.54" fill="black" opacity="0.04"/>
<circle cx="445.0" cy="365.8" r="0.31" fill="black" opacity="0.13"/>
<circle cx="314.5" cy="344.6" r="0.42" fill="black" opacity="0.05"/>
<circle cx="405.0" cy="561.6" r="0.35" fill="black" opacity="0.07"/>
<circle cx="84.1" cy="148.1" r="0.41" fill="black" opacity="0.04"/>
<circle cx="625.7" cy="43.6" r="0.60" fill="black" opacity="0.14"/>
<circle cx="390.8" cy="598.0" r="0.62" fill="black" opacity="0.06"/>
<circle cx="192.1" cy="451.5" r="0.54" fill="black" opacity="0.08"/>
<circle cx="799.7" cy="559.6" r="0.89" fill="black" opacity="0.13"/>
<circle cx="115.5" cy="175.0" r="0.46" fill="black" opacity="0.09"/>
<circle cx="612.4" cy="446.3" r="0.40" fill="black" opacity="0.08"/>
<circle cx="398.9" cy="240.8" r="0.60" fill="black" opacity="0.09"/>
<circle cx="178.9" cy="261.6" r="0.40" fill="black" opacity="0.13"/>
<circle cx="686.2" cy="47.4" r="0.37" fill="black" opacity="0.05"/>
<circle cx="471.8" cy="221.7" r="0.39" fill="black" opacity="0.06"/>
<circle cx="141.5" cy="395.4" r="0.50" fill="black" opacity="0.13"/>
<circle cx="179.9" cy="520.5" r="0.56" fill="black" opacity="0.08"/>
<circle cx="726.0" cy="528.0" r="0.58" fill="black" opacity="0.11"/>
<circle cx="118.1" cy="153.1" r="0.37" fill="black" opacity="0.11"/>
<circle cx="737.9" cy="562.4" r="0.58" fill="black" opacity="0.13"/>
<circle cx="408.3" cy="418.4" r="0.78" fill="black" opacity="0.09"/>
<circle cx="679.7" cy="287.2" r="0.41" fill="black" opacity="0.08"/>
<circle cx="244.2" cy="209.3" r="0.78" fill="black" opacity="0.12"/>
<circle cx="769.9" cy="135.8" r="0.89" fill="black" opacity="0.12"/>
<circle cx="387.9" cy="132.5" r="0.73" fill="black" opacity="0.04"/>
<circle cx="200.3" cy="57.6" r="0.57" fill="black" opacity="0.07"/>
<circle cx="537.5" cy="450.1" r="0.85" fill="black" opacity="0.07"/>
<circle cx="665.1" cy="124.8" r="0.63" fill="black" opacity="0.08"/>
<circle cx="344.1" cy="380.5" r="0.75" fill="black" opacity="0.10"/>
<circle cx="474.4" cy="68.4" r="0.62" fill="black" opacity="0.14"/>
<circle cx="212.1" cy="468.3" r="0.57" fill="black" opacity="0.10"/>
<circle cx="290.1" cy="422.8" r="0.35" fill="black" opacity="0.11"/>
<circle cx="124.8" cy="50.3" r="0.31" fill="black" opacity="0.11"/>
<circle cx="272.9" cy="231.9" r="0.79" fill="black" opacity="0.09"/>
<circle cx="739.0" cy="496.3" r="0.49" fill="black" opacity="0.13"/>
<circle cx="471.2" cy="546.3" r="0.72" fill="black" opacity="0.06"/>
<circle cx="221.3" cy="121.6" r="0.86" fill="black" opacity="0.10"/>
<circle cx="243.2" cy="446.3" r="0.86" fill="black" opacity="0.11"/>
<circle cx="621.1" cy="392.2" r="0.49" fill="black" opacity="0.10"/>
<circle cx="712.9" cy="356.4" r="0.67" fill="black" opacity="0.11"/>
<circle cx="642.8" cy="336.5" r="0.60" fill="black" opacity="0.08"/>
<circle cx="700.9" cy="70.6" r="0.37" fill="black" opacity="0.10"/>
<circle cx="507.4" cy="534.1" r="0.81" fill="black" opacity="0.09"/>
<circle cx="44.4" cy="513.5" r="0.33" fill="black" opacity="0.10"/>
<circle cx="610.5" cy="99.7" r="0.45" fill="black" opacity="0.12"/>
<circle cx="60.9" cy="357.2" r="0.54" fill="black" opacity="0.09"/>
<circle cx="712.9" cy="523.8" r="0.31" fill="black" opacity="0.05"/>
<circle cx="537.3" cy="408.4" r="0.51" fill="black" opacity="0.07"/>
<circle cx="249.8" cy="226.9" r="0.33" fill="black" opacity="0.04"/>
<circle cx="278.0" cy="576.8" r="0.63" fill="black" opacity="0.04"/>
<circle cx="543.2" cy="357.9" r="0.50" fill="black" opacity="0.07"/>
<circle cx="748.5" cy="371.2" r="0.54" fill="black" opacity="0.08"/>
<circle cx="230.9" cy="461.8" r="0.56" fill="black" opacity="0.07"/>
<circle cx="698.9" cy="134.6" r="0.64" fill="black" opacity="0.06"/>
<circle cx="544.8" cy="585.5" r="0.61" fill="black" opacity="0.09"/>
<circle cx="757.1" cy="383.4" r="0.66" fill="black" opacity="0.08"/>
<circle cx="243.2" cy="195.3" r="0.31" fill="black" opacity="0.05"/>
<circle cx="703.3" cy="308.9" r="0.66" fill="black" opacity="0.11"/>
<circle cx="261.3" cy="307.2" r="0.39" fill="black" opacity="0.13"/>
<circle cx="434.6" cy="524.5" r="0.64" fill="black" opacity="0.13"/>
<circle cx="169.0" cy="578.9" r="0.55" fill="black" opacity="0.12"/>
<circle cx="336.6" cy="387.6" r="0.31" fill="black" opacity="0.11"/>
<circle cx="217.6" cy="465.1" r="0.81" fill="black" opacity="0.06"/>
<circle cx="292.3" cy="321.3" r="0.53" fill="black" opacity="0.09"/>
<circle cx="277.6" cy="581.3" r="0.63" fill="black" opacity="0.13"/>
<circle cx="40.9" cy="306.6" r="0.40" fill="black" opacity="0.07"/>
<circle cx="251.0" cy="355.4" r="0.47" fill="black" opacity="0.09"/>
<circle cx="145.2" cy="185.3" r="0.75" fill="black" opacity="0.12"/>
<circle cx="452.3" cy="340.8" r="0.41" fill="black" opacity="0.11"/>
<circle cx="96.8" cy="269.0" r="0.56" fill="black" opacity="0.09"/>
<circle cx="792.7" cy="398.3" r="0.31" fill="black" opacity="0.06"/>
<circle cx="764.4" cy="386.5" r="0.36" fill="black" opacity="0.12"/>
<circle cx="27.6" cy="151.9" r="0.76" fill="black" opacity="0.09"/>
<circle cx="164.0" cy="568.5" r="0.45" fill="black" opacity="0.12"/>
<circle cx="734.9" cy="110.4" r="0.57" fill="black" opacity="0.06"/>
<circle cx="92.6" cy="428.5" r="0.31" fill="black" opacity="0.11"/>
<circle cx="176.1" cy="425.7" r="0.47" fill="black" opacity="0.11"/>
<circle cx="511.9" cy="382.1" r="0.68" fill="black" opacity="0.04"/>
<circle cx="325.1" cy="463.3" r="0.69" fill="black" opacity="0.04"/>
<circle cx="233.4" cy="193.8" r="0.40" fill="black" opacity="0.14"/>
<circle cx="285.6" cy="401.6" r="0.63" fill="black" opacity="0.13"/>
<circle cx="757.2" cy="242.9" r="0.35" fill="black" opacity="0.05"/>
<circle cx="303.3" cy="186.7" r="0.49" fill="black" opacity="0.09"/>
<circle cx="301.3" cy="367.3" r="0.88" fill="black" opacity="0.11"/>
<circle cx="381.9" cy="574.0" r="0.45" fill="black" opacity="0.13"/>
<circle cx="726.3" cy="552.3" r="0.75" fill="black" opacity="0.12"/>
<circle cx="483.1" cy="484.5" r="0.77" fill="black" opacity="0.04"/>
<circle cx="143.0" cy="28.0" r="0.30" fill="black" opacity="0.07"/>
<circle cx="611.0" cy="121.2" r="0.43" fill="black" opacity="0.07"/>
<circle cx="555.8" cy="507.8" r="0.51" fill="black" opacity="0.12"/>
<circle cx="50.1" cy="258.6" r="0.35" fill="black" opacity="0.10"/>
<circle cx="443.5" cy="302.6" r="0.71" fill="black" opacity="0.11"/>
<circle cx="696.1" cy="92.0" r="0.59" fill="black" opacity="0.11"/>
<circle cx="384.7" cy="176.4" r="0.85" fill="black" opacity="0.11"/>
<circle cx="452.1" cy="222.5" r="0.84" fill="black" opacity="0.14"/>
<circle cx="180.3" cy="511.1" r="0.78" fill="black" opacity="0.07"/>
<circle cx="549.7" cy="489.9" r="0.51" fill="black" opacity="0.09"/>
<circle cx="452.7" cy="9.5" r="0.52" fill="black" opacity="0.07"/>
<circle cx="707.3" cy="380.5" r="0.68" fill="black" opacity="0.13"/>
<circle cx="119.9" cy="99.4" r="0.63" fill="black" opacity="0.11"/>
</svg>