<svg xmlns="http://www.w3.org/2000/svg" viewBox="0 0 800 600" preserveAspectRatio="xMidYMid slice">
  <defs>
    <linearGradient id="bg" x1="0" y1="0" x2="0" y2="1">
      <stop offset="0%" stop-color="#C5D2D9"/>
      <stop offset="60%" stop-color="#6F8690"/>
      <stop offset="100%" stop-color="#2E3940"/>
    </linearGradient>
    <radialGradient id="fig" cx="50%" cy="50%" r="50%">
      <stop offset="0%" stop-color="#2E3940" stop-opacity=".9"/>
      <stop offset="100%" stop-color="#2E3940" stop-opacity="0"/>
    </radialGradient>
    <filter id="grain">
      <feTurbulence type="fractalNoise" baseFrequency="0.9" numOctaves="2" seed="43"/>
      <feColorMatrix values="0 0 0 0 0  0 0 0 0 0  0 0 0 0 0  0 0 0 .16 0"/>
      <feComposite in2="SourceGraphic" operator="in"/>
    </filter>
  </defs>
  <rect width="800" height="600" fill="url(#bg)"/>
  
  <rect width="800" height="600" fill="url(#bg)" filter="url(#grain)" opacity=".9"/>
  <circle cx="370.0" cy="403.0" r="0.78" fill="black" opacity="0.09"/>
<circle cx="398.6" cy="11.5" r="0.56" fill="black" opacity="0.08"/>
<circle cx="681.8" cy="328.2" r="0.75" fill="black" opacity="0.08"/>
<circle cx="141.0" cy="510.5" r="0.79" fill="black" opacity="0.08"/>
<circle cx="76.6" cy="307.5" r="0.60" fill="black" opacity="0.12"/>
<circle cx="477.8" cy="304.0" r="0.65" fill="black" opacity="0.08"/>
<circle cx="39.1" cy="36.7" r="0.87" fill="black" opacity="0.12"/>
<circle cx="236.9" cy="533.3" r="0.61" fill="black" opacity="0.05"/>
<circle cx="684.6" cy="350.6" r="0.86" fill="black" opacity="0.11"/>
<circle cx="75.3" cy="373.6" r="0.77" fill="black" opacity="0.13"/>
<circle cx="265.0" cy="317.3" r="0.72" fill="black" opacity="0.06"/>
<circle cx="678.7" cy="468.5" r="0.33" fill="black" opacity="0.10"/>
<circle cx="294.4" cy="111.6" r="0.66" fill="black" opacity="0.14"/>
<circle cx="441.6" cy="68.0" r="0.60" fill="black" opacity="0.12"/>
<circle cx="764.2" cy="429.1" r="0.32" fill="black" opacity="0.14"/>
<circle cx="481.5" cy="50.2" r="0.38" fill="black" opacity="0.05"/>
<circle cx="531.8" cy="92.5" r="0.78" fill="black" opacity="0.05"/>
<circle cx="428.2" cy="265.8" r="0.32" fill="black" opacity="0.04"/>
<circle cx="722.8" cy="586.0" r="0.37" fill="black" opacity="0.11"/>
<circle cx="791.3" cy="542.3" r="0.83" fill="black" opacity="0.07"/>
<circle cx="573.8" cy="298.9" r="0.86" fill="black" opacity="0.11"/>
<circle cx="674.9" cy="514.3" r="0.53" fill="black" opacity="0.11"/>
<circle cx="74.4" cy="123.7" r="0.86" fill="black" opacity="0.08"/>
<circle cx="548.0" cy="345.4" r="0.46" fill="black" opacity="0.10"/>
<circle cx="730.0" cy="196.4" r="0.51" fill="black" opacity="0.06"/>
<circle cx="142.3" cy="496.4" r="0.72" fill="black" opacity="0.14"/>
<circle cx="535.7" cy="575.3" r="0.43" fill="black" opacity="0.06"/>
<circle cx="173.2" cy="230.3" r="0.89" fill="black" opacity="0.06"/>
<circle cx="366.7" cy="36.7" r="0.32" fill="black" opacity="0.09"/>
<circle cx="490.6" cy="306.5" r="0.85" fill="black" opacity="0.13"/>
<circle cx="760.9" cy="347.4" r="0.46" fill="black" opacity="0.05"/>
<circle cx="611.4" cy="92.8" r="0.30" fill="black" opacity="0.11"/>
<circle cx="99.6" cy="373.5" r="0.42" fill="black" opacity="0.08"/>
<circle cx="11.8" cy="225.7" r="0.50" fill="black" opacity="0.07"/>
<circle cx="107.1" cy="345.4" r="0.72" fill="black" opacity="0.06"/>
<circle cx="35.1" cy="160.9" r="0.72" fill="black" opacity="0.07"/>
<circle cx="518.0" cy="44.1" r="0.72" fill="black" opacity="0.05"/>
<circle cx="178.6" cy="437.8" r="0.59" fill="black" opacity="0.10"/>
<circle cx="228.9" cy="401.1" r="0.48" fill="black" opacity="0.09"/>
<circle cx="355.2" cy="547.3" r="0.75" fill="black" opacity="0.09"/>
<circle cx="676.3" cy="366.0" r="0.73" fill="black" opacity="0.09"/>
<circle cx="460.1" cy="128.2" r="0.86" fill="black" opacity="0.10"/>
<circle cx="655.7" cy="363.8" r="0.31" fill="black" opacity="0.05"/>
<circle cx="705.4" cy="419.8" r="0.84" fill="black" opacity="0.13"/>
<circle cx="185.1" cy="591.1" r="0.67" fill="black" opacity="0.11"/>
<circle cx="413.3" cy="153.7" r="0.59" fill="black" opacity="0.09"/>
<circle cx="237.8" cy="205.1" r="0.57" fill="black" opacity="0.07"/>
<circle cx="111.5" cy="482.6" r="0.51" fill="black" opacity="0.08"/>
<circle cx="626.7" cy="419.0" r="0.57" fill="black" opacity="0.07"/>
<circle cx="636.8" cy="142.0" r="0.58" fill="black" opacity="0.08"/>
<circle cx="795.9" cy="143.9" r="0.66" fill="black" opacity="0.09"/>
<circle cx="38.9" cy="108.9" r="0.83" fill="black" opacity="0.12"/>
<circle cx="170.8" cy="107.1" r="0.86" fill="black" opacity="0.10"/>
<circle cx="573.1" cy="544.3" r="0.46" fill="black" opacity="0.09"/>
<circle cx="731.0" cy="111.7" r="0.45" fill="black" opacity="0.13"/>
<circle cx="673.3" cy="309.2" r="0.38" fill="black" opacity="0.12"/>
<circle cx="246.7" cy="454.4" r="0.45" fill="black" opacity="0.06"/>
<circle cx="554.5" cy="235.9" r="0.53" fill="black" opacity="0.08"/>
<circle cx="367.3" cy="282.5" r="0.69" fill="black" opacity="0.05"/>
<circle cx="540.3" cy="292.0" r="0.79" fill="black" opacity="0.07"/>
<circle cx="533.5" cy="123.4" r="0.72" fill="black" opacity="0.11"/>
<circle cx="435.1" cy="287.7" r="0.87" fill="black" opacity="0.08"/>
<circle cx="65.8" cy="198.6" r="0.33" fill="black" opacity="0.13"/>
<circle cx="668.0" cy="111.1" r="0.68" fill="black" opacity="0.06"/>
<circle cx="684.0" cy="248.7" r="0.34" fill="black" opacity="0.10"/>
<circle cx="66.7" cy="536.6" r="0.86" fill="black" opacity="0.10"/>
<circle cx="195.7" cy="464.8" r="0.32" fill="black" opacity="0.05"/>
<circle cx="243.3" cy="43.3" r="0.82" fill="black" opacity="0.11"/>
<circle cx="646.5" cy="394.3" r="0.43" fill="black" opacity="0.07"/>
<circle cx="486.4" cy="474.8" r="0.68" fill="black" opacity="0.07"/>
<circle cx="639.8" cy="246.2" r="0.68" fill="black" opacity="0.12"/>
<circle cx="530.9" cy="275.7" r="0.65" fill="black" opacity="0.06"/>
<circle cx="349.5" cy="499.7" r="0.59" fill="black" opacity="0.04"/>
<circle cx="651.6" cy="92.7" r="0.32" fill="black" opacity="0.10"/>
<circle cx="614.5" cy="67.4" r="0.57" fill="black" opacity="0.09"/>
<circle cx="98.3" cy="377.5" r="0.45" fill="black" opacity="0.11"/>
<circle cx="402.2" cy="314.6" r="0.44" fill="black" opacity="0.12"/>
<circle cx="8.8" cy="187.9" r="0.36" fill="black" opacity="0.05"/>
<circle cx="8.7" cy="313.8" r="0.34" fill="black" opacity="0.05"/>
<circle cx="346.0" cy="408.0" r="0.42" fill="black" opacity="0.11"/>
<circle cx="446.4" cy="554.6" r="0.79" fill="black" opacity="0.14"/>
<circle cx="285.8" cy="531.2" r="0.49" fill="black" opacity="0.07"/>
<circle cx="340.4" cy="13.8" r="0.73" fill="black" opacity="0.05"/>
<circle cx="490.1" cy="35.3" r="0.56" fill="black" opacity="0.07"/>
<circle cx="756.2" cy="179.1" r="0.51" fill="black" opacity="0.07"/>
<circle cx="100.0" cy="386.5" r="0.48" fill="black" opacity="0.07"/>
<circle cx="250.1" cy="211.8" r="0.78" fill="black" opacity="0.06"/>
<circle cx="99.1" cy="198.4" r="0.64" fill="black" opacity="0.07"/>
<circle cx="87.7" cy="214.4" r="0.88" fill="black" opacity="0.13"/>
<circle cx="355.7" cy="259.8" r="0.40" fill="black" opacity="0.11"/>
<circle cx="577.1" cy="155.1" r="0.68" fill="black" opacity="0.05"/>
<circle cx="251.8" cy="173.2" r="0.78" fill="black" opacity="0.10"/>
<circle cx="408.9" cy="262.6" r="0.63" fill="black" opacity="0.09"/>
<circle cx="206.1" cy="498.5" r="0.78" fill="black" opacity="0.08"/>
<circle cx="322.1" cy="555.8" r="0.31" fill="black" opacity="0.12"/>
<circle cx="135.2" cy="114.1" r="0.51" fill="black" opacity="0.10"/>
<circle cx="256.0" cy="310.6" r="0.61" fill="black" opacity="0.13"/>
<circle cx="463.5" cy="162.2" r="0.68" fill="black" opacity="0.10"/>
<circle cx="242.6" cy="434.6" r="0.31" fill="black" opacity="0.14"/>
<circle cx="698.9" cy="36.4" r="0.73" fill="black" opacity="0.05"/>
<circle cx="792.5" cy="271.5" r="0.75" fill="black" opacity="0.07"/>
<circle cx="523.5" cy="17.3" r="0.78" fill="black" opacity="0.07"/>
<circle cx="137.8" cy="264.7" r="0.60" fill="black" opacity="0.04"/>
<circle cx="133.5" cy="228.9" r="0.63" fill="black" opacity="0.11"/>
<circle cx="108.3" cy="493.4" r="0.52" fill="black" opacity="0.14"/>
<circle cx="297.0" cy="268.5" r="0.52" fill="black" opacity="0.05"/>
<circle cx="741.7" cy="354.8" r="0.75" fill="black" opacity="0.06"/>
<circle cx="388.6" cy="171.1" r="0.46" fill="black" opacity="0.08"/>
<circle cx="500.8" cy="274.5" r="0.72" fill="black" opacity="0.14"/>
<circle cx="472.0" cy="479.6" r="0.87" fill="black" opacity="0.14"/>
<circle cx="278.5" cy="502.5" r="0.72" fill="black" opacity="0.04"/>
<circle cx="655.7" cy="538.5" r="0.84" fill="black" opacity="0.07"/>
<circle cx="580.9" cy="496.6" r="0.57" fill="black" opacity="0.10"/>
<circle cx="305.1" cy="552.6" r="0.61" fill="black" opacity="0.06"/>
<circle cx="342.6" cy="352.3" r="0.53" fill="black" opacity="0.07"/>
<circle cx="503.6" cy="191.5" r="0.59" fill="black" opacity="0.05"/>
<circle cx="254.7" cy="68.2" r="0.59" fill="black" opacity="0.07"/>
<circle cx="301.8" cy="18.2" r="0.89" fill="black" opacity="0.06"/>
<circle cx="8.1" cy="350.6" r="0.32" fill="black" opacity="0.10"/>
<circle cx="730.7" cy="34.9" r="0.58" fill="black" opacity="0.12"/>
<circle cx="190.4" cy="79.1" r="0.33" fill="black" opacity="0.11"/>
<circle cx="610.5" cy="256.1" r="0.51" fill="black" opacity="0.14"/>
<circle cx="198.9" cy="480.0" r="0.78" fill="black" opacity="0.09"/>
<circle cx="627.6" cy="196.0" r="0.84" fill="black" opacity="0.11"/>
<circle cx="498.8" cy="503.8" r="0.70" fill="black" opacity="0.13"/>
<circle cx="282.2" cy="225.0" r="0.87" fill="black" opacity="0.08"/>
<circle cx="249.5" cy="484.6" r="0.51" fill="black" opacity="0.08"/>
<circle cx="454.8" cy="52.8" r="0.80" fill="black" opacity="0.10"/>
<circle cx="37.5" cy="56.4" r="0.48" fill="black" opacity="0.08"/>
<circle cx="641.2" cy="480.4" r="0.74" fill="black" opacity="0.11"/>
<circle cx="409.7" cy="52.5" r="0.51" fill="black" opacity="0.11"/>
<circle cx="20.7" cy="144.9" r="0.31" fill="black" opacity="0.07"/>
<circle cx="259.8" cy="287.4" r="0.41" fill="black" opacity="0.09"/>
<circle cx="93.9" cy="473.4" r="0.80" fill="black" opacity="0.08"/>
<circle cx="708.7" cy="398.6" r="0.64" fill="black" opacity="0.10"/>
<circle cx="355.7" cy="83.2" r="0.84" fill="black" opacity="0.06"/>
<circle cx="699.0" cy="229.8" r="0.63" fill="black" opacity="0.10"/>
<circle cx="288.5" cy="594.7" r="0.81" fill="black" opacity="0.08"/>
<circle cx="270.2" cy="532.3" r="0.86" fill="black" opacity="0.08"/>
<circle cx="104.4" cy="321.2" r="0.58" fill="black" opacity="0.08"/>
<circle cx="482.0" cy="8.4" r="0.64" fill="black" opacity="0.11"/>
<circle cx="441.3" cy="1.0" r="0.64" fill="black" opacity="0.13"/>
<circle cx="547.4" cy="309.4" r="0.53" fill="black" opacity="0.06"/>
<circle cx="364.6" cy="575.2" r="0.39" fill="black" opacity="0.10"/>
<circle cx="419.2" cy="54.6" r="0.45" fill="black" opacity="0.07"/>
<circle cx="71.3" cy="56.1" r="0.80" fill="black" opacity="0.07"/>
<circle cx="537.4" cy="293.0" r="0.61" fill="black" opacity="0.09"/>
<circle cx="26.3" cy="43.3" r="0.37" fill="black" opacity="0.12"/>
<circle cx="559.6" cy="576.5" r="0.71" fill="black" opacity="0.06"/>
<circle cx="465.9" cy="398.2" r="0.47" fill="black" opacity="0.08"/>
<circle cx="636.5" cy="124.0" r="0.32" fill="black" opacity="0.13"/>
<circle cx="271.6" cy="364.1" r="0.88" fill="black" opacity="0.06"/>
<circle cx="211.1" cy="201.5" r="0.47" fill="black" opacity="0.09"/>
<circle cx="17.3" cy="484.1" r="0.90" fill="black" opacity="0.06"/>
<circle cx="317.3" cy="225.0" r="0.72" fill="black" opacity="0.08"/>
<circle cx="689.8" cy="568.7" r="0.46" fill="black" opacity="0.05"/>
<circle cx="485.9" cy="37.3" r="0.55" fill="black" opacity="0.06"/>
<circle cx="661.2" cy="242.6" r="0.80" fill="black" opacity="0.10"/>
<circle cx="596.5" cy="399.6" r="0.77" fill="black" opacity="0.11"/>
<circle cx="643.9" cy="233.6" r="0.41" fill="black" opacity="0.06"/>
<circle cx="652.5" cy="69.8" r="0.76" fill="black" opacity="0.04"/>
<circle cx="12.3" cy="440.4" r="0.74" fill="black" opacity="0.12"/>
<circle cx="295.4" cy="410.6" r="0.74" fill="black" opacity="0.06"/>
<circle cx="97.8" cy="36.4" r="0.48" fill="black" opacity="0.12"/>
<circle cx="181.5" cy="500.6" r="0.69" fill="black" opacity="0.14"/>
<circle cx="219.5" cy="583.0" r="0.77" fill="black" opacity="0.04"/>
<circle cx="218.7" cy="69.2" r="0.50" fill="black" opacity="0.10"/>
<circle cx="775.7" cy="514.9" r="0.49" fill="black" opacity="0.10"/>
<circle cx="401.5" cy="11.3" r="0.47" fill="black" opacity="0.09"/>
<circle cx="406.7" cy="430.4" r="0.48" fill="black" opacity="0.14"/>
<circle cx="734.2" cy="178.7" r="0.38" fill="black" opacity="0.06"/>
<circle cx="281.6" cy="288.2" r="0.56" fill="black" opacity="0.10"/>
<circle cx="576.1" cy="6.2" r="0.38" fill="black" opacity="0.08"/>
<circle cx="400.3" cy="447.5" r="0.75" fill="black" opacity="0.08"/>
<circle cx="512.4" cy="176.7" r="0.61" fill="black" opacity="0.12"/>
<circle cx="585.9" cy="12.1" r="0.73" fill="black" opacity="0.10"/>
<circle cx="713.7" cy="33.7" r="0.30" fill="black" opacity="0.07"/>
<circle cx="782.5" cy="207.2" r="0.63" fill="black" opacity="0.06"/>
<circle cx="406.4" cy="457.8" r="0.49" fill="black" opacity="0.05"/>
<circle cx="475.5" cy="43.7" r="0.32" fill="black" opacity="0.06"/>
</svg>