<svg xmlns="http://www.w3.org/2000/svg" viewBox="0 0 800 600" preserveAspectRatio="xMidYMid slice">
  <defs>
    <linearGradient id="bg" x1="0" y1="0" x2="0" y2="1">
      <stop offset="0%" stop-color="#E1D4B8"/>
      <stop offset="60%" stop-color="#A68E65"/>
      <stop offset="100%" stop-color="#5A4E36"/>
    </linearGradient>
    <radialGradient id="fig" cx="50%" cy="50%" r="50%">
      <stop offset="0%" stop-color="#5A4E36" stop-opacity=".9"/>
      <stop offset="100%" stop-color="#5A4E36" stop-opacity="0"/>
    </radialGradient>
    <filter id="grain">
      <feTurbulence type="fractalNoise" baseFrequency="0.9" numOctaves="2" seed="31"/>
      <feColorMatrix values="0 0 0 0 0  0 0 0 0 0  0 0 0 0 0  0 0 0 .16 0"/>
      <feComposite in2="SourceGraphic" operator="in"/>
    </filter>
  </defs>
  <rect width="800" height="600" fill="url(#bg)"/>
  
  <rect width="800" height="600" fill="url(#bg)" filter="url(#grain)" opacity=".9"/>
  <circle cx="547.1" cy="83.2" r="0.37" fill="black" opacity="0.06"/>
<circle cx="606.1" cy="88.4" r="0.74" fill="black" opacity="0.11"/>
<circle cx="109.3" cy="321.4" r="0.57" fill="black" opacity="0.08"/>
<circle cx="797.1" cy="55.9" r="0.31" fill="black" opacity="0.13"/>
<circle cx="322.4" cy="119.1" r="0.50" fill="black" opacity="0.08"/>
<circle cx="764.1" cy="126.2" r="0.43" fill="black" opacity="0.10"/>
<circle cx="437.9" cy="572.2" r="0.80" fill="black" opacity="0.08"/>
<circle cx="163.1" cy="501.8" r="0.89" fill="black" opacity="0.04"/>
<circle cx="588.0" cy="521.0" r="0.69" fill="black" opacity="0.06"/>
<circle cx="637.3" cy="437.9" r="0.42" fill="black" opacity="0.10"/>
<circle cx="175.3" cy="24.8" r="0.50" fill="black" opacity="0.07"/>
<circle cx="316.9" cy="388.1" r="0.80" fill="black" opacity="0.14"/>
<circle cx="781.1" cy="596.1" r="0.77" fill="black" opacity="0.07"/>
<circle cx="141.0" cy="374.3" r="0.63" fill="black" opacity="0.11"/>
<circle cx="74.8" cy="115.7" r="0.85" fill="black" opacity="0.10"/>
<circle cx="556.3" cy="57.4" r="0.54" fill="black" opacity="0.13"/>
<circle cx="519.5" cy="595.0" r="0.42" fill="black" opacity="0.09"/>
<circle cx="640.4" cy="266.8" r="0.77" fill="black" opacity="0.10"/>
<circle cx="94.4" cy="59.3" r="0.89" fill="black" opacity="0.05"/>
<circle cx="155.3" cy="201.1" r="0.73" fill="black" opacity="0.13"/>
<circle cx="380.5" cy="298.9" r="0.77" fill="black" opacity="0.07"/>
<circle cx="297.9" cy="367.6" r="0.68" fill="black" opacity="0.04"/>
<circle cx="89.6" cy="82.8" r="0.74" fill="black" opacity="0.11"/>
<circle cx="778.5" cy="460.5" r="0.45" fill="black" opacity="0.12"/>
<circle cx="788.0" cy="209.2" r="0.31" fill="black" opacity="0.08"/>
<circle cx="226.0" cy="105.7" r="0.33" fill="black" opacity="0.05"/>
<circle cx="692.2" cy="30.0" r="0.67" fill="black" opacity="0.06"/>
<circle cx="154.7" cy="492.4" r="0.48" fill="black" opacity="0.06"/>
<circle cx="363.9" cy="417.0" r="0.61" fill="black" opacity="0.13"/>
<circle cx="321.1" cy="314.4" r="0.73" fill="black" opacity="0.09"/>
<circle cx="573.6" cy="280.1" r="0.38" fill="black" opacity="0.05"/>
<circle cx="626.5" cy="446.9" r="0.87" fill="black" opacity="0.11"/>
<circle cx="463.8" cy="99.7" r="0.81" fill="black" opacity="0.05"/>
<circle cx="339.9" cy="84.4" r="0.53" fill="black" opacity="0.07"/>
<circle cx="340.4" cy="426.7" r="0.62" fill="black" opacity="0.06"/>
<circle cx="623.1" cy="441.1" r="0.80" fill="black" opacity="0.04"/>
<circle cx="491.8" cy="537.2" r="0.46" fill="black" opacity="0.06"/>
<circle cx="651.1" cy="218.3" r="0.54" fill="black" opacity="0.12"/>
<circle cx="307.3" cy="119.1" r="0.43" fill="black" opacity="0.07"/>
<circle cx="558.3" cy="221.0" r="0.76" fill="black" opacity="0.05"/>
<circle cx="199.2" cy="375.0" r="0.59" fill="black" opacity="0.09"/>
<circle cx="748.3" cy="166.4" r="0.41" fill="black" opacity="0.04"/>
<circle cx="386.0" cy="178.3" r="0.58" fill="black" opacity="0.04"/>
<circle cx="0.2" cy="227.8" r="0.75" fill="black" opacity="0.07"/>
<circle cx="730.1" cy="347.6" r="0.54" fill="black" opacity="0.12"/>
<circle cx="186.6" cy="363.1" r="0.81" fill="black" opacity="0.09"/>
<circle cx="255.8" cy="57.6" r="0.64" fill="black" opacity="0.06"/>
<circle cx="298.6" cy="325.5" r="0.86" fill="black" opacity="0.11"/>
<circle cx="415.5" cy="515.0" r="0.49" fill="black" opacity="0.08"/>
<circle cx="541.8" cy="332.5" r="0.43" fill="black" opacity="0.08"/>
<circle cx="658.8" cy="145.4" r="0.72" fill="black" opacity="0.04"/>
<circle cx="763.7" cy="410.4" r="0.49" fill="black" opacity="0.14"/>
<circle cx="637.2" cy="37.0" r="0.45" fill="black" opacity="0.09"/>
<circle cx="798.6" cy="84.4" r="0.33" fill="black" opacity="0.07"/>
<circle cx="35.8" cy="245.4" r="0.62" fill="black" opacity="0.08"/>
<circle cx="113.1" cy="13.9" r="0.78" fill="black" opacity="0.08"/>
<circle cx="384.0" cy="286.8" r="0.71" fill="black" opacity="0.13"/>
<circle cx="661.7" cy="436.3" r="0.50" fill="black" opacity="0.06"/>
<circle cx="71.8" cy="515.4" r="0.33" fill="black" opacity="0.10"/>
<circle cx="727.8" cy="193.4" r="0.53" fill="black" opacity="0.08"/>
<circle cx="755.6" cy="410.5" r="0.80" fill="black" opacity="0.04"/>
<circle cx="584.3" cy="270.6" r="0.54" fill="black" opacity="0.12"/>
<circle cx="588.3" cy="546.3" r="0.74" fill="black" opacity="0.13"/>
<circle cx="342.5" cy="333.7" r="0.77" fill="black" opacity="0.09"/>
<circle cx="109.8" cy="351.3" r="0.82" fill="black" opacity="0.13"/>
<circle cx="100.1" cy="228.6" r="0.44" fill="black" opacity="0.07"/>
<circle cx="767.6" cy="252.7" r="0.49" fill="black" opacity="0.07"/>
<circle cx="352.3" cy="401.8" r="0.51" fill="black" opacity="0.06"/>
<circle cx="180.9" cy="156.0" r="0.84" fill="black" opacity="0.06"/>
<circle cx="603.2" cy="64.9" r="0.77" fill="black" opacity="0.07"/>
<circle cx="623.7" cy="259.3" r="0.35" fill="black" opacity="0.05"/>
<circle cx="639.9" cy="325.2" r="0.59" fill="black" opacity="0.08"/>
<circle cx="553.1" cy="289.4" r="0.34" fill="black" opacity="0.10"/>
<circle cx="250.9" cy="508.0" r="0.63" fill="black" opacity="0.12"/>
<circle cx="96.1" cy="424.2" r="0.67" fill="black" opacity="0.13"/>
<circle cx="707.3" cy="330.9" r="0.66" fill="black" opacity="0.12"/>
<circle cx="211.0" cy="327.0" r="0.77" fill="black" opacity="0.10"/>
<circle cx="434.0" cy="513.5" r="0.89" fill="black" opacity="0.07"/>
<circle cx="59.9" cy="368.1" r="0.39" fill="black" opacity="0.14"/>
<circle cx="379.7" cy="320.5" r="0.79" fill="black" opacity="0.13"/>
<circle cx="113.9" cy="272.0" r="0.41" fill="black" opacity="0.09"/>
<circle cx="106.6" cy="526.2" r="0.51" fill="black" opacity="0.08"/>
<circle cx="718.0" cy="494.0" r="0.50" fill="black" opacity="0.09"/>
<circle cx="530.6" cy="112.7" r="0.38" fill="black" opacity="0.13"/>
<circle cx="129.7" cy="424.7" r="0.74" fill="black" opacity="0.10"/>
<circle cx="276.7" cy="514.6" r="0.77" fill="black" opacity="0.05"/>
<circle cx="717.8" cy="382.0" r="0.47" fill="black" opacity="0.06"/>
<circle cx="78.4" cy="486.8" r="0.81" fill="black" opacity="0.07"/>
<circle cx="144.0" cy="44.0" r="0.55" fill="black" opacity="0.07"/>
<circle cx="41.6" cy="178.6" r="0.79" fill="black" opacity="0.05"/>
<circle cx="323.2" cy="308.5" r="0.40" fill="black" opacity="0.04"/>
<circle cx="59.4" cy="86.3" r="0.88" fill="black" opacity="0.13"/>
<circle cx="564.1" cy="539.7" r="0.50" fill="black" opacity="0.06"/>
<circle cx="695.9" cy="363.8" r="0.85" fill="black" opacity="0.08"/>
<circle cx="330.4" cy="430.7" r="0.83" fill="black" opacity="0.06"/>
<circle cx="210.5" cy="8.2" r="0.64" fill="black" opacity="0.13"/>
<circle cx="454.3" cy="89.2" r="0.71" fill="black" opacity="0.10"/>
<circle cx="84.2" cy="548.5" r="0.70" fill="black" opacity="0.09"/>
<circle cx="275.3" cy="96.3" r="0.58" fill="black" opacity="0.08"/>
<circle cx="186.4" cy="387.8" r="0.70" fill="black" opacity="0.14"/>
<circle cx="774.8" cy="279.6" r="0.73" fill="black" opacity="0.08"/>
<circle cx="346.8" cy="340.2" r="0.89" fill="black" opacity="0.04"/>
<circle cx="370.4" cy="201.9" r="0.78" fill="black" opacity="0.14"/>
<circle cx="377.6" cy="47.9" r="0.66" fill="black" opacity="0.10"/>
<circle cx="544.7" cy="466.0" r="0.58" fill="black" opacity="0.09"/>
<circle cx="613.9" cy="16.4" r="0.44" fill="black" opacity="0.11"/>
<circle cx="782.1" cy="566.0" r="0.47" fill="black" opacity="0.14"/>
<circle cx="223.2" cy="271.7" r="0.40" fill="black" opacity="0.10"/>
<circle cx="313.4" cy="411.0" r="0.87" fill="black" opacity="0.05"/>
<circle cx="525.9" cy="361.0" r="0.46" fill="black" opacity="0.04"/>
<circle cx="751.2" cy="417.1" r="0.68" fill="black" opacity="0.05"/>
<circle cx="719.9" cy="239.4" r="0.58" fill="black" opacity="0.10"/>
<circle cx="356.8" cy="572.1" r="0.58" fill="black" opacity="0.11"/>
<circle cx="618.3" cy="559.7" r="0.40" fill="black" opacity="0.07"/>
<circle cx="760.0" cy="363.7" r="0.52" fill="black" opacity="0.13"/>
<circle cx="95.0" cy="152.0" r="0.34" fill="black" opacity="0.11"/>
<circle cx="389.4" cy="182.7" r="0.56" fill="black" opacity="0.07"/>
<circle cx="567.4" cy="455.8" r="0.53" fill="black" opacity="0.13"/>
<circle cx="35.8" cy="339.4" r="0.39" fill="black" opacity="0.05"/>
<circle cx="446.6" cy="52.2" r="0.34" fill="black" opacity="0.05"/>
<circle cx="301.2" cy="498.2" r="0.47" fill="black" opacity="0.05"/>
<circle cx="614.1" cy="490.3" r="0.90" fill="black" opacity="0.04"/>
<circle cx="132.0" cy="260.1" r="0.89" fill="black" opacity="0.09"/>
<circle cx="706.9" cy="134.5" r="0.58" fill="black" opacity="0.11"/>
<circle cx="181.3" cy="313.4" r="0.79" fill="black" opacity="0.12"/>
<circle cx="557.3" cy="497.3" r="0.90" fill="black" opacity="0.10"/>
<circle cx="199.3" cy="133.2" r="0.33" fill="black" opacity="0.13"/>
<circle cx="457.1" cy="361.7" r="0.82" fill="black" opacity="0.11"/>
<circle cx="313.8" cy="351.4" r="0.35" fill="black" opacity="0.07"/>
<circle cx="274.8" cy="476.8" r="0.70" fill="black" opacity="0.10"/>
<circle cx="316.1" cy="211.0" r="0.53" fill="black" opacity="0.05"/>
<circle cx="288.5" cy="545.6" r="0.79" fill="black" opacity="0.06"/>
<circle cx="399.0" cy="446.8" r="0.42" fill="black" opacity="0.08"/>
<circle cx="469.2" cy="112.7" r="0.85" fill="black" opacity="0.04"/>
<circle cx="704.8" cy="401.5" r="0.54" fill="black" opacity="0.07"/>
<circle cx="694.7" cy="426.9" r="0.43" fill="black" opacity="0.07"/>
<circle cx="74.5" cy="377.2" r="0.55" fill="black" opacity="0.07"/>
<circle cx="563.1" cy="152.5" r="0.39" fill="black" opacity="0.12"/>
<circle cx="709.4" cy="484.4" r="0.64" fill="black" opacity="0.11"/>
<circle cx="690.5" cy="23.3" r="0.48" fill="black" opacity="0.08"/>
<circle cx="586.6" cy="201.6" r="0.76" fill="black" opacity="0.07"/>
<circle cx="757.1" cy="261.2" r="0.65" fill="black" opacity="0.10"/>
<circle cx="657.3" cy="338.1" r="0.43" fill="black" opacity="0.08"/>
<circle cx="450.1" cy="43.5" r="0.80" fill="black" opacity="0.07"/>
<circle cx="736.4" cy="223.2" r="0.87" fill="black" opacity="0.11"/>
<circle cx="314.5" cy="420.8" r="0.30" fill="black" opacity="0.05"/>
<circle cx="466.5" cy="184.6" r="0.54" fill="black" opacity="0.11"/>
<circle cx="378.6" cy="367.4" r="0.75" fill="black" opacity="0.12"/>
<circle cx="84.6" cy="497.2" r="0.75" fill="black" opacity="0.06"/>
<circle cx="67.2" cy="115.9" r="0.35" fill="black" opacity="0.10"/>
<circle cx="796.2" cy="291.6" r="0.47" fill="black" opacity="0.06"/>
<circle cx="778.2" cy="327.9" r="0.44" fill="black" opacity="0.13"/>
<circle cx="334.6" cy="590.8" r="0.61" fill="black" opacity="0.07"/>
<circle cx="149.3" cy="9.9" r="0.79" fill="black" opacity="0.07"/>
<circle cx="582.7" cy="504.9" r="0.54" fill="black" opacity="0.09"/>
<circle cx="577.2" cy="385.5" r="0.52" fill="black" opacity="0.06"/>
<circle cx="228.1" cy="12.5" r="0.68" fill="black" opacity="0.10"/>
<circle cx="619.0" cy="263.7" r="0.74" fill="black" opacity="0.10"/>
<circle cx="681.6" cy="330.2" r="0.70" fill="black" opacity="0.10"/>
<circle cx="162.4" cy="46.3" r="0.79" fill="black" opacity="0.11"/>
<circle cx="408.4" cy="548.2" r="0.41" fill="black" opacity="0.11"/>
<circle cx="402.7" cy="63.2" r="0.38" fill="black" opacity="0.04"/>
<circle cx="151.5" cy="466.2" r="0.59" fill="black" opacity="0.04"/>
<circle cx="395.1" cy="583.8" r="0.77" fill="black" opacity="0.07"/>
<circle cx="387.0" cy="220.2" r="0.44" fill="black" opacity="0.11"/>
<circle cx="18.5" cy="283.9" r="0.86" fill="black" opacity="0.12"/>
<circle cx="525.0" cy="499.1" r="0.87" fill="black" opacity="0.07"/>
<circle cx="756.7" cy="536.2" r="0.60" fill="black" opacity="0.05"/>
<circle cx="426.3" cy="298.1" r="0.90" fill="black" opacity="0.06"/>
<circle cx="574.5" cy="455.4" r="0.66" fill="black" opacity="0.07"/>
<circle cx="725.1" cy="153.1" r="0.81" fill="black" opacity="0.13"/>
<circle cx="425.2" cy="31.2" r="0.46" fill="black" opacity="0.05"/>
<circle cx="148.6" cy="213.6" r="0.64" fill="black" opacity="0.12"/>
<circle cx="37.8" cy="446.6" r="0.37" fill="black" opacity="0.11"/>
<circle cx="8.5" cy="213.9" r="0.86" fill="black" opacity="0.13"/>
<circle cx="42.4" cy="232.9" r="0.85" fill="black" opacity="0.06"/>
<circle cx="366.4" cy="156.8" r="0.48" fill="black" opacity="0.09"/>
<circle cx="111.1" cy="92.5" r="0.89" fill="black" opacity="0.12"/>
<circle cx="477.8" cy="81.5" r="0.38" fill="black" opacity="0.10"/>
<circle cx="491.7" cy="6.1" r="0.88" fill="black" opacity="0.08"/>
</svg>